<svg fill="none" height="80" viewBox="0 0 212 80" width="212" xmlns="http://www.w3.org/2000/svg"><g fill="#a77c4f"><path d="m31.0232 12.5398h2.1405v1.4157c.4419-.867 1.4512-1.6104 2.8127-1.6104 1.2023 0 2.1591.5131 2.618 1.6629.7079-1.1498 1.9813-1.6629 3.1311-1.6629 1.6985 0 3.0786 1.0431 3.0786 3.5917v5.8558h-2.1404v-5.7152c0-1.3632-.5842-1.9458-1.646-1.9458s-2.0338.7079-2.0338 2.1236v5.5374h-2.1405v-5.7152c0-1.3632-.6011-1.9458-1.646-1.9458-1.0448 0-2.0337.7079-2.0337 2.1236v5.5374h-2.1405z"/><path d="m49.7048 20.8561-3.6628-8.3146h2.3183l2.4588 5.9625 2.2641-5.9625h2.088l-5.043 12.4195h-2.1049l1.6798-4.1049z"/><path d="m57.3116 19.21v-5.0599h-1.2379v-1.6105h1.2379v-2.0337h2.1405v2.0337h2.0338v1.6105h-2.0338v4.8651c0 .8146.3895 1.1854 1.0617 1.1854.4251 0 .7435-.0525 1.0432-.1778v1.6985c-.3353.1236-.7959.2303-1.4513.2303-1.8407 0-2.7958-.9906-2.7958-2.7433z"/><path d="m62.8662 17.2814v-.1423c0-2.9363 2.088-4.794 4.6704-4.794 2.0524 0 3.9812.9195 4.2285 3.4681h-2.0694c-.1778-1.2379-.9906-1.751-2.1235-1.751-1.4682 0-2.513 1.1329-2.513 3.0431v.1422c0 2.0169.9906 3.0786 2.5655 3.0786 1.1329 0 2.1049-.6723 2.2302-1.9813h1.9644c-.1592 2.1236-1.7697 3.6273-4.281 3.6273-2.6536 0-4.6704-1.734-4.6704-4.689z"/><path d="m72.9858 19.2286c0-2.1591 2.088-2.9364 4.7416-2.9364h1.1498v-.4775c0-1.2379-.425-1.8577-1.6816-1.8577-1.1142 0-1.6629.5317-1.7696 1.4513h-2.0693c.1778-2.1591 1.8932-3.06 3.9626-3.06 2.0693 0 3.6984.8484 3.6984 3.38v6.0692h-2.1049v-1.1329c-.6012.7959-1.4157 1.309-2.8314 1.309-1.6985 0-3.0956-.8145-3.0956-2.7433zm5.8914-.6723v-.9195h-1.0973c-1.6274 0-2.6722.3708-2.6722 1.5037 0 .779.425 1.2921 1.4868 1.2921 1.309 0 2.2827-.6892 2.2827-1.8746z"/><path d="m82.7686 18.9102h2.0168c.1067.9382.5842 1.4868 1.8407 1.4868 1.1499 0 1.663-.4064 1.663-1.1854 0-.7789-.6198-1.0448-1.9813-1.2734-2.4419-.3895-3.3445-1.0787-3.3445-2.8127 0-1.8577 1.734-2.7772 3.4681-2.7772 1.8932 0 3.397.7078 3.6273 2.7958h-1.9813c-.1761-.8484-.6537-1.2379-1.646-1.2379-.9195 0-1.4682.442-1.4682 1.0973 0 .6554.442.9382 1.9102 1.1854 2.176.3353 3.4681.867 3.4681 2.8314 0 1.9643-1.3277 2.955-3.6967 2.955-2.3691 0-3.7865-1.0973-3.8746-3.0617z"/><path d="m92.0908 20.5377c0-.779.6198-1.3971 1.3988-1.3971.7789 0 1.4157.6198 1.4157 1.3971s-.6198 1.3801-1.4157 1.3801-1.3988-.6011-1.3988-1.3801z"/><path d="m96.2666 17.2814v-.1423c0-2.9363 2.088-4.794 4.6704-4.794 2.052 0 3.981.9195 4.228 3.4681h-2.069c-.178-1.2379-.991-1.751-2.123-1.751-1.4686 0-2.5134 1.1329-2.5134 3.0431v.1422c0 2.0169.9906 3.0786 2.5654 3.0786 1.133 0 2.105-.6723 2.23-1.9813h1.965c-.16 2.1236-1.77 3.6273-4.281 3.6273-2.6539 0-4.6707-1.734-4.6707-4.689z"/><path d="m106.439 17.2644v-.1422c0-2.8669 2.036-4.7771 4.76-4.7771 2.725 0 4.742 1.8932 4.742 4.7246v.1422c0 2.8839-2.034 4.7602-4.759 4.7602-2.724 0-4.741-1.8932-4.741-4.706zm7.307-.0355v-.1236c0-1.9102-.955-3.0787-2.548-3.0787-1.594 0-2.566 1.1499-2.566 3.06v.1423c0 1.8932.938 3.0786 2.566 3.0786 1.627 0 2.548-1.1854 2.548-3.0786z"/><path d="m117.868 12.5398h2.14v1.4157c.442-.867 1.452-1.6104 2.813-1.6104 1.202 0 2.159.5131 2.618 1.6629.708-1.1498 1.981-1.6629 3.131-1.6629 1.699 0 3.079 1.0431 3.079 3.5917v5.8558h-2.141v-5.7152c0-1.3632-.584-1.9458-1.646-1.9458-1.061 0-2.033.7079-2.033 2.1236v5.5374h-2.141v-5.7152c0-1.3632-.601-1.9458-1.646-1.9458s-2.035.7079-2.035 2.1236v5.5374h-2.141v-9.2528z"/></g><path d="m8.90394 39.0177h-8.90394v-5.8118h25.3266v5.8118h-8.9039v27.1724h-7.51876z" fill="#1a477f"/><path d="m78.8366 58.8545-2.2607 7.3342h-7.0124l10.8412-32.9842h9.7337l10.7026 32.9842h-7.7967l-8.2114-26.8947-5.998 19.5605z" fill="#1a477f"/><path d="m106.966 55.8553h7.151c.324 2.9533 1.568 5.3969 6.459 5.3969 3.275 0 5.442-1.7984 5.442-4.3826 0-2.5841-1.383-3.5527-6.228-4.2894-8.442-1.1075-11.901-3.6442-11.901-10.0114 0-5.6289 4.706-9.8269 11.994-9.8269 7.289 0 11.764 3.3208 12.364 9.8726h-6.874c-.462-2.999-2.215-4.3825-5.49-4.3825s-4.936 1.5223-4.936 3.7356c0 2.3539 1.062 3.4597 6.135 4.198 7.981 1.0143 12.086 3.1836 12.086 10.0114 0 5.8592-4.798 10.5178-12.594 10.5178-9.041 0-13.193-4.2437-13.608-10.8412z" fill="#1a477f"/><path d="m61.7009 50.7124-5.4968.0186c-.0711 5.0769-2.2861 7.849-4.5078 9.3578l8.4196-1.5901c1.9153-3.9643 1.585-7.7863 1.585-7.7863z" fill="#ffb600"/><path d="m56.9662 52.0011c-.7384 4.2708-2.7586 6.6399-4.8449 7.9522l8.3858-1.1227c1.6866-3.1176 1.8915-5.9879 1.8915-5.9879z" fill="#ff3918"/><path d="m57.1762 53.5522c-1.0702 3.082-2.6806 4.9804-4.3825 6.1403l7.981-.6333c1.2142-2.0846 1.624-3.7949 1.624-3.7949l-5.2242-1.7121z" fill="#00a3ab"/><path d="m57.3506 54.9478c-1.3208 2.2996-2.8855 3.7796-4.4807 4.7127l8.2689-.293c.6977-1.0329 1.0262-1.7645 1.0262-1.7645l-4.8144-2.6536z" fill="#00709a"/><path d="m56.4956 56.9696c-1.9153 2.2489-4.7128 3.5392-7.6746 3.5392-5.6932 0-10.3247-4.8313-10.3247-10.7683 0-5.9371 4.6315-10.7684 10.3247-10.7684 2.9635 0 5.7593 1.2904 7.6746 3.5392l.762.8958 4.7263-4.01-.7603-.8992c-3.0228-3.568-7.5442-5.6136-12.4026-5.6136-9.2206 0-16.7224 7.561-16.7224 16.8562 0 9.2951 7.5018 16.8561 16.7224 16.8561 4.8601 0 9.3798-2.0456 12.4026-5.6119l.7603-.8992-4.7263-4.01-.762.8958z" fill="#1a477f"/><path d="m25.015 16.653h-7.6492c-.1151-.0051-2.833-.105-4.1945-1.1854l1.2937-.9127c1.0635.8433 2.9076.9331 2.9262.9331h4.9042c-3.248-3.1413-6.606-4.6654-10.0809-4.535-4.38931.166-7.83031 3.0109-9.36624 4.535h3.07693l-.30313 1.1633h-5.308828l.751878-.9449c.18458-.2303 4.57728-5.6644 11.09689-5.91676 4.1353-.16256 8.1622 1.81876 11.9453 5.88286l.9094.9788z" fill="#a77c4f"/><path d="m8.48212 16.3991c-.0525 0-.39287 0-.40473 0l.36578-1.1633c.09483.0084 2.24883.0626 4.03713-2.1185.7451-.9077 1.5511-1.0753 2.1184-1.0668 1.839.0474 4.0269 2.7704 4.093 2.8601l-1.5393.0881c-.3624-.4877-1.5309-1.7578-2.5842-1.7849-.4233-.005-.823.1999-1.1854.6418-1.9762 2.4098-4.38758 2.5452-4.89899 2.5452z" fill="#a77c4f"/><path d="m10.0062 21.9957c-1.32428 0-2.41822-.7112-3.15655-2.0846-.81453-1.5156-.88396-3.3817-.19135-5.1191.62656-1.5715 1.48342-2.4826 2.54858-2.7061 1.33782-.2845 2.41312.674 2.45882.7146l-.8738.8332.4369-.4166-.4335.4183s-.6537-.5606-1.31917-.4132c-.61471.1337-1.1837.8162-1.6443 1.9745-.57237 1.436-.52157 2.9651.13886 4.1945.70784 1.3175 1.67478 1.7155 3.04811 1.2599l.4234 1.0957c-.5013.1676-.9805.2506-1.4343.2506z" fill="#a77c4f"/><path d="m12.6277 24.4207c-.1558 0-.3116-.0034-.4674-.0085-6.51962-.2523-10.91401-5.6848-11.0969-5.9168l-.751877-.9449h5.308837l.30312 1.1634h-3.07692c1.53592 1.5224 4.97692 4.3673 9.36624 4.5349 3.4715.1321 6.8329-1.3936 10.0809-4.5349h-4.9296s-1.839.0914-2.9008.9331l-1.2937-.9128c1.3615-1.0804 4.0811-1.1803 4.1708-1.1854h7.6746l-.9094.9771c-3.6408 3.9118-7.5001 5.8914-11.4779 5.8914z" fill="#a77c4f"/><path d="m14.5378 22.1531c-.5538 0-1.3395-.1931-2.0558-1.0686-1.7866-2.1794-3.94398-2.1252-4.03712-2.1184l-.36578-1.1651c.11346-.0034 3.1243-.11 5.3021 2.5452.364.4437.7654.6672 1.187.6418 1.0584-.0271 2.2235-1.2971 2.5825-1.7831l1.5562.0694c-.066.0897-2.2708 2.8297-4.1099 2.8771-.0203 0-.0389 0-.0609 0z" fill="#a77c4f"/><path d="m179.144 0s-11.656 14.2941-32.556 13.764v14.3957h65.11v-14.3957c-20.898.5284-32.556-13.764-32.556-13.764z" fill="#ffb600"/><path d="m146.588 13.8319v52.4042c20.898-.5284 32.556 13.764 32.556 13.764v-52.4042s-11.656-14.294-32.556-13.764z" fill="#00a0a9"/><path d="m211.698 13.8319v52.4042c-20.898-.5284-32.556 13.764-32.556 13.764v-52.4042s11.656-14.294 32.556-13.764z" fill="#006e96"/><path d="m169.75 47.4119c.298 1.3192.444 2.6892.429 4.1133-.015 1.4547-.203 2.7552-.557 3.8932-.361 1.143-.864 2.0829-1.523 2.8263-.653.74-1.432 1.2361-2.337 1.4969-.901.2557-1.893.227-2.975-.0829-1.607-.4607-2.918-1.243-3.941-2.3522-1.022-1.1075-1.828-2.4537-2.408-4.0354-.579-1.5884-.972-3.3546-1.18-5.319-.208-1.9643-.301-4.0388-.279-6.2368.018-1.7916.174-3.5646.476-5.3071.301-1.7493.78-3.2785 1.444-4.5841.659-1.3141 1.521-2.2878 2.586-2.9296 1.06-.6418 2.366-.7366 3.908-.2946.872.2506 1.697.6875 2.464 1.3073.762.6198 1.441 1.3716 2.029 2.2539.586.8823 1.062 1.8763 1.429 2.9838.364 1.1058.557 2.2776.591 3.5138l-3.566-1.0228c-.07-1.2481-.38-2.3318-.923-3.2463-.545-.9144-1.285-1.502-2.225-1.7713-.644-.1846-1.203-.1812-1.677.0085-.474.1964-.875.5199-1.2.9652-.331.4505-.596.9941-.805 1.6359-.203.6435-.371 1.3344-.506 2.0659-.13.7333-.23 1.4682-.288 2.2099-.057.7417-.115 1.4326-.164 2.0761l.062.105c.492-1.0617 1.164-1.7594 2.014-2.1032.85-.3387 1.763-.3708 2.743-.0897 1.082.3099 2.053.845 2.901 1.6019.848.757 1.566 1.6714 2.151 2.74.584 1.0702 1.024 2.2607 1.327 3.5747zm-3.397 5.2716c.168-.7095.254-1.4682.263-2.2675.008-.7925-.061-1.5901-.214-2.3724-.147-.7875-.377-1.5055-.696-2.154-.318-.6486-.716-1.2142-1.19-1.6951-.476-.481-1.036-.8112-1.683-.9958s-1.211-.1846-1.709.0051c-.491.1846-.908.5097-1.246.9703-.339.4606-.596 1.0381-.774 1.7324-.173.6892-.263 1.4529-.271 2.2776-.009.8247.066 1.6342.222 2.425.161.7908.405 1.5257.733 2.2014.327.6825.733 1.2633 1.218 1.7459.489.4843 1.053.8162 1.696 1.0008.649.1863 1.213.1728 1.695-.0457.483-.2184.89-.5724 1.22-1.0465.33-.4759.574-1.0686.736-1.7798" fill="#fff"/><path d="m199.521 41.7747c2.565.5369 4.059 2.6976 4.052 6.3063-.01 5.8507-3.746 9.9894-8.15 11.2019-4.405 1.2125-8.188-.7299-8.178-6.54.007-3.7746 1.663-6.8447 4.112-8.6787-2.015-.5232-3.235-2.3436-3.23-5.2885.011-5.0209 3.563-8.9429 7.353-9.986s7.302.9737 7.294 5.871c-.005 3.0295-1.294 5.4156-3.253 7.1157zm-4.09 13.3593c2.323-.6401 4.069-2.9448 4.076-6.2639s-1.763-4.5739-4.025-3.9507c-2.232.6147-4.132 2.9211-4.137 6.2402-.007 3.3191 1.886 4.5807 4.088 3.9744m.039-22.3614c-1.926.53-3.458 2.5689-3.463 5.2241-.005 2.6553 1.612 3.8272 3.508 3.3056 1.897-.5216 3.397-2.552 3.403-5.2496.005-2.5316-1.491-3.8186-3.448-3.2801z" fill="#fff"/></svg>